<?xml version="1.0" encoding="utf-8"?>
<!-- Generator: Adobe Illustrator 25.0.0, SVG Export Plug-In . SVG Version: 6.00 Build 0)  -->
<svg version="1.1" id="Layer_1" xmlns="http://www.w3.org/2000/svg" xmlns:xlink="http://www.w3.org/1999/xlink" x="0px" y="0px"
	 viewBox="0 0 593.6 840.6" style="enable-background:new 0 0 593.6 840.6;" xml:space="preserve">
<style type="text/css">
	.st0{fill:url(#SVGID_1_);}
	.st1{clip-path:url(#SVGID_3_);}
	.st2{opacity:0.2;}
	.st3{fill:url(#SVGID_4_);}
	.st4{fill:url(#SVGID_5_);}
	.st5{fill:url(#SVGID_6_);}
	.st6{fill:url(#SVGID_7_);}
	.st7{fill:url(#SVGID_8_);}
	.st8{fill:url(#SVGID_9_);}
	.st9{fill:url(#SVGID_10_);}
	.st10{fill:url(#SVGID_11_);}
	.st11{fill:url(#SVGID_12_);}
	.st12{fill:url(#SVGID_13_);}
	.st13{fill:url(#SVGID_14_);}
	.st14{fill:url(#SVGID_15_);}
	.st15{fill:url(#SVGID_16_);}
	.st16{fill:url(#SVGID_17_);}
	.st17{fill:url(#SVGID_18_);}
	.st18{fill:url(#SVGID_19_);}
	.st19{fill:url(#SVGID_20_);}
	.st20{fill:url(#SVGID_21_);}
	.st21{fill:url(#SVGID_22_);}
	.st22{fill:url(#SVGID_23_);}
	.st23{fill:url(#SVGID_24_);}
	.st24{fill:url(#SVGID_25_);}
	.st25{fill:url(#SVGID_26_);}
	.st26{fill:url(#SVGID_27_);}
	.st27{fill:url(#SVGID_28_);}
	.st28{fill:url(#SVGID_29_);}
	.st29{fill:url(#SVGID_30_);}
	.st30{fill:url(#SVGID_31_);}
	.st31{fill:url(#SVGID_32_);}
	.st32{fill:url(#SVGID_33_);}
	.st33{fill:url(#SVGID_34_);}
	.st34{fill:url(#SVGID_35_);}
</style>
<g>
	<g id="Layer_2_1_">
		<g id="covers">
			<g id="No.2">
				
					<linearGradient id="SVGID_1_" gradientUnits="userSpaceOnUse" x1="247.8662" y1="1063.7687" x2="-470.7147" y2="1782.3595" gradientTransform="matrix(1 0 0 -1 408.17 1843.5682)">
					<stop  offset="0" style="stop-color:#124734"/>
					<stop  offset="0.5" style="stop-color:#00754A"/>
					<stop  offset="1" style="stop-color:#00AC69"/>
				</linearGradient>
				<rect x="-0.9" y="-0.4" class="st0" width="595.3" height="841.9"/>
				<g>
					<defs>
						<rect id="SVGID_2_" x="-0.9" y="-0.4" width="595.3" height="841.9"/>
					</defs>
					<clipPath id="SVGID_3_">
						<use xlink:href="#SVGID_2_"  style="overflow:visible;"/>
					</clipPath>
					<g class="st1">
						<g class="st2">
							
								<linearGradient id="SVGID_4_" gradientUnits="userSpaceOnUse" x1="118.5759" y1="1002.1291" x2="253.8558" y2="1002.1291" gradientTransform="matrix(1 0 0 -1 408.17 1843.5782)">
								<stop  offset="0" style="stop-color:#000000"/>
								<stop  offset="1" style="stop-color:#FFFFFF"/>
							</linearGradient>
							<path class="st3" d="M594.4,909.1c-37.4,0-67.6-30.3-67.6-67.6c0-37.4,30.3-67.6,67.6-67.6c37.4,0,67.6,30.3,67.6,67.6
								c0,0,0,0,0,0C662,878.8,631.7,909,594.4,909.1z M594.4,788.8c-29.1,0-52.6,23.6-52.6,52.6c0,29.1,23.6,52.6,52.6,52.6
								c29.1,0,52.6-23.6,52.6-52.6c0,0,0,0,0,0C647,812.4,623.5,788.9,594.4,788.8z"/>
							
								<linearGradient id="SVGID_5_" gradientUnits="userSpaceOnUse" x1="88.4058" y1="1002.1191" x2="284.0458" y2="1002.1191" gradientTransform="matrix(1 0 0 -1 408.17 1843.5782)">
								<stop  offset="0" style="stop-color:#000000"/>
								<stop  offset="1" style="stop-color:#FFFFFF"/>
							</linearGradient>
							<path class="st4" d="M594.4,939.3c-54,0-97.8-43.8-97.8-97.8c0-54,43.8-97.8,97.8-97.8s97.8,43.8,97.8,97.8
								C692.1,895.5,648.4,939.2,594.4,939.3z M594.4,758.6c-45.7,0-82.8,37.1-82.8,82.8s37.1,82.8,82.8,82.8s82.8-37.1,82.8-82.8
								C677.2,795.7,640.1,758.7,594.4,758.6z"/>
							
								<linearGradient id="SVGID_6_" gradientUnits="userSpaceOnUse" x1="58.2258" y1="1002.1091" x2="314.2258" y2="1002.1091" gradientTransform="matrix(1 0 0 -1 408.17 1843.5782)">
								<stop  offset="0" style="stop-color:#000000"/>
								<stop  offset="1" style="stop-color:#FFFFFF"/>
							</linearGradient>
							<path class="st5" d="M594.4,969.5c-70.7,0-128-57.3-128-128s57.3-128,128-128s128,57.3,128,128
								C722.3,912.1,665.1,969.4,594.4,969.5z M594.4,728.5c-62.4,0-113,50.6-113,113s50.6,113,113,113s113-50.6,113-113l0,0
								C707.3,779.1,656.8,728.5,594.4,728.5L594.4,728.5z"/>
							
								<linearGradient id="SVGID_7_" gradientUnits="userSpaceOnUse" x1="28.0258" y1="1002.1191" x2="344.4158" y2="1002.1191" gradientTransform="matrix(1 0 0 -1 408.17 1843.5782)">
								<stop  offset="0" style="stop-color:#000000"/>
								<stop  offset="1" style="stop-color:#FFFFFF"/>
							</linearGradient>
							<path class="st6" d="M594.4,999.7c-87.2,0-158.2-71-158.2-158.2s71-158.2,158.2-158.2s158.2,71,158.2,158.2
								S681.6,999.7,594.4,999.7z M594.4,698.3c-79,0-143.2,64.2-143.2,143.2s64.2,143.2,143.2,143.2s143.2-64.2,143.2-143.2
								S673.3,698.3,594.4,698.3L594.4,698.3z"/>
							
								<linearGradient id="SVGID_8_" gradientUnits="userSpaceOnUse" x1="-2.1642" y1="1002.1191" x2="374.6058" y2="1002.1191" gradientTransform="matrix(1 0 0 -1 408.17 1843.5782)">
								<stop  offset="0" style="stop-color:#000000"/>
								<stop  offset="1" style="stop-color:#FFFFFF"/>
							</linearGradient>
							<path class="st7" d="M594.4,1029.8c-103.9,0-188.4-84.5-188.4-188.4s84.5-188.4,188.4-188.4s188.4,84.5,188.4,188.4
								S698.3,1029.8,594.4,1029.8z M594.4,668.1c-95.6,0-173.4,77.8-173.4,173.4s77.8,173.4,173.4,173.4s173.4-77.8,173.4-173.4
								S690,668.1,594.4,668.1z"/>
							
								<linearGradient id="SVGID_9_" gradientUnits="userSpaceOnUse" x1="-32.343" y1="1002.1287" x2="404.817" y2="1002.1287" gradientTransform="matrix(1 0 0 -1 408.17 1843.5782)">
								<stop  offset="0" style="stop-color:#000000"/>
								<stop  offset="1" style="stop-color:#FFFFFF"/>
							</linearGradient>
							<path class="st8" d="M594.4,1060c-120.7,0-218.6-97.9-218.6-218.6c0-120.7,97.9-218.6,218.6-218.6
								c120.7,0,218.6,97.9,218.6,218.6c0,58-23,113.6-64,154.6C708,1037.1,652.4,1060.2,594.4,1060z M594.4,637.9
								c-112.3,0-203.6,91.3-203.6,203.6S482.1,1045,594.4,1045S798,953.7,798,841.5S706.6,637.9,594.4,637.9L594.4,637.9z"/>
							
								<linearGradient id="SVGID_10_" gradientUnits="userSpaceOnUse" x1="-62.5722" y1="1002.1387" x2="434.9878" y2="1002.1387" gradientTransform="matrix(1 0 0 -1 408.17 1843.5782)">
								<stop  offset="0" style="stop-color:#000000"/>
								<stop  offset="1" style="stop-color:#FFFFFF"/>
							</linearGradient>
							<path class="st9" d="M594.4,1090.2c-137.4,0-248.8-111.4-248.8-248.8c0-137.4,111.4-248.8,248.8-248.8S843.1,704,843.2,841.4
								c0,66-26.2,129.3-72.9,175.9C723.7,1064.2,660.4,1090.4,594.4,1090.2z M594.4,607.7c-128.9,0-233.8,104.9-233.8,233.8
								s104.9,233.8,233.8,233.8s233.7-104.9,233.7-233.8S723.3,607.7,594.4,607.7z"/>
							
								<linearGradient id="SVGID_11_" gradientUnits="userSpaceOnUse" x1="-92.7149" y1="1002.1086" x2="465.1652" y2="1002.1086" gradientTransform="matrix(1 0 0 -1 408.17 1843.5782)">
								<stop  offset="0" style="stop-color:#000000"/>
								<stop  offset="1" style="stop-color:#FFFFFF"/>
							</linearGradient>
							<path class="st10" d="M594.4,1120.4c-154.1,0-278.9-124.9-278.9-278.9c0-154.1,124.9-278.9,278.9-278.9
								s278.9,124.9,278.9,278.9c0,74-29.4,144.9-81.7,197.2C739.4,1091.2,668.4,1120.6,594.4,1120.4z M594.4,577.5
								c-145.5,0-263.9,118.4-263.9,264s118.4,263.9,264,263.9S858.3,987,858.3,841.5S739.9,577.5,594.4,577.5L594.4,577.5z"/>
							
								<linearGradient id="SVGID_12_" gradientUnits="userSpaceOnUse" x1="-122.8859" y1="1002.1285" x2="495.3541" y2="1002.1285" gradientTransform="matrix(1 0 0 -1 408.17 1843.5782)">
								<stop  offset="0" style="stop-color:#000000"/>
								<stop  offset="1" style="stop-color:#FFFFFF"/>
							</linearGradient>
							<path class="st11" d="M594.4,1150.6c-170.7,0-309.1-138.4-309.1-309.1s138.4-309.1,309.1-309.1s309.1,138.4,309.1,309.1
								c0,82-32.6,160.6-90.5,218.6C755.1,1118.2,676.4,1150.8,594.4,1150.6z M594.4,547.3c-162.2,0-294.1,131.9-294.1,294.1
								s131.9,294.1,294.1,294.1s294.1-131.9,294.1-294.1S756.6,547.3,594.4,547.3L594.4,547.3z"/>
							
								<linearGradient id="SVGID_13_" gradientUnits="userSpaceOnUse" x1="-153.0952" y1="1002.1185" x2="525.5449" y2="1002.1185" gradientTransform="matrix(1 0 0 -1 408.17 1843.5782)">
								<stop  offset="0" style="stop-color:#000000"/>
								<stop  offset="1" style="stop-color:#FFFFFF"/>
							</linearGradient>
							<path class="st12" d="M594.4,1180.8c-187.4,0-339.3-151.9-339.3-339.3S407,502.1,594.4,502.1
								c187.4,0,339.3,151.9,339.3,339.3c0,90-35.8,176.3-99.4,239.9C770.8,1145.2,684.4,1181,594.4,1180.8z M594.4,517.1
								c-178.8,0-324.3,145.5-324.3,324.3s145.5,324.3,324.3,324.3s324.3-145.5,324.3-324.3S773.2,517.1,594.4,517.1L594.4,517.1z"
								/>
							
								<linearGradient id="SVGID_14_" gradientUnits="userSpaceOnUse" x1="-183.2842" y1="1000.9584" x2="555.7258" y2="1000.9584" gradientTransform="matrix(1 0 0 -1 408.17 1843.5782)">
								<stop  offset="0" style="stop-color:#000000"/>
								<stop  offset="1" style="stop-color:#FFFFFF"/>
							</linearGradient>
							<path class="st13" d="M594.4,1211c-203.4-0.3-368.1-165.5-367.8-368.9S392.1,474,595.5,474.3
								c203.4,0.3,368.1,165.5,367.8,368.9c-0.2,147.9-88.9,281.3-225.1,338.8C692.7,1201.2,643.8,1211.1,594.4,1211z M594.4,487
								c-195.5,0-354.5,159-354.5,354.5s159,354.5,354.5,354.5s354.5-159,354.5-354.5S789.9,486.9,594.4,487L594.4,487z"/>
							
								<linearGradient id="SVGID_15_" gradientUnits="userSpaceOnUse" x1="-213.4742" y1="1000.9286" x2="585.9158" y2="1000.9286" gradientTransform="matrix(1 0 0 -1 408.17 1843.5782)">
								<stop  offset="0" style="stop-color:#000000"/>
								<stop  offset="1" style="stop-color:#FFFFFF"/>
							</linearGradient>
							<path class="st14" d="M594.4,1241.2c-220.1-0.3-398.3-178.9-398-399c0.3-220.1,178.9-398.3,399-398
								c220.1,0.3,398.3,178.9,398,399c-0.2,160-96,304.3-243.4,366.6C700.8,1230.6,647.8,1241.3,594.4,1241.2z M594.4,456.8
								c-212.1,0-384.7,172.6-384.7,384.7s172.6,384.7,384.7,384.7s384.7-172.6,384.7-384.7S806.5,456.8,594.4,456.8L594.4,456.8z"
								/>
							
								<linearGradient id="SVGID_16_" gradientUnits="userSpaceOnUse" x1="-243.6642" y1="1000.7385" x2="616.1058" y2="1000.7385" gradientTransform="matrix(1 0 0 -1 408.17 1843.5782)">
								<stop  offset="0" style="stop-color:#000000"/>
								<stop  offset="1" style="stop-color:#FFFFFF"/>
							</linearGradient>
							<path class="st15" d="M594.4,1271.3c-236.7-0.3-428.2-192.4-427.9-429.1c0.3-236.7,192.4-428.2,429.1-427.9
								s428.2,192.4,427.9,429.1c-0.2,172-103.3,327.2-261.8,394.1C708.8,1260,651.9,1271.5,594.4,1271.3z M594.4,426.6
								c-228.8,0-414.9,186.1-414.9,414.9s186.1,414.9,414.9,414.9s414.9-186.1,414.9-414.9S823.1,426.6,594.4,426.6L594.4,426.6z"
								/>
							
								<linearGradient id="SVGID_17_" gradientUnits="userSpaceOnUse" x1="-273.8542" y1="1000.6685" x2="646.2958" y2="1000.6685" gradientTransform="matrix(1 0 0 -1 408.17 1843.5782)">
								<stop  offset="0" style="stop-color:#000000"/>
								<stop  offset="1" style="stop-color:#FFFFFF"/>
							</linearGradient>
							<path class="st16" d="M594.4,1301.6c-253.3-0.3-458.4-205.9-458.1-459.2s205.9-458.4,459.2-458.1
								c253.3,0.3,458.4,205.9,458.1,459.2c-0.2,184.1-110.5,350.3-280.2,421.9C716.8,1289.4,655.9,1301.7,594.4,1301.6z
								 M594.4,396.4c-245.4,0-445.1,199.7-445.1,445.1s199.7,445.1,445.1,445.1s445.1-199.7,445.1-445.1S839.8,396.4,594.4,396.4
								L594.4,396.4z"/>
							
								<linearGradient id="SVGID_18_" gradientUnits="userSpaceOnUse" x1="-304.0342" y1="1000.6085" x2="676.4758" y2="1000.6085" gradientTransform="matrix(1 0 0 -1 408.17 1843.5782)">
								<stop  offset="0" style="stop-color:#000000"/>
								<stop  offset="1" style="stop-color:#FFFFFF"/>
							</linearGradient>
							<path class="st17" d="M594.4,1331.7c-269.9-0.3-488.5-219.4-488.1-489.4s219.4-488.5,489.4-488.1s488.5,219.4,488.1,489.4
								c-0.2,196.2-117.8,373.2-298.5,449.6C724.9,1318.7,660,1331.8,594.4,1331.7z M594.4,366.2c-262.1,0-475.3,213.2-475.3,475.3
								s213.2,475.3,475.3,475.3s475.3-213.2,475.3-475.3S856.4,366.2,594.4,366.2z"/>
							
								<linearGradient id="SVGID_19_" gradientUnits="userSpaceOnUse" x1="-334.2242" y1="1000.5785" x2="706.6658" y2="1000.5785" gradientTransform="matrix(1 0 0 -1 408.17 1843.5782)">
								<stop  offset="0" style="stop-color:#000000"/>
								<stop  offset="1" style="stop-color:#FFFFFF"/>
							</linearGradient>
							<path class="st18" d="M594.4,1361.9c-286.6-0.3-518.6-233-518.3-519.5s233-518.6,519.5-518.3
								c286.6,0.3,518.6,233,518.3,519.5c-0.3,208.3-125.1,396.3-317,477.4C732.9,1348.1,664,1362,594.4,1361.9z M594.4,336
								C315.7,336,88.9,562.8,88.9,841.5s226.7,505.4,505.5,505.4s505.4-226.8,505.4-505.4S873.1,336,594.4,336L594.4,336z"/>
							
								<linearGradient id="SVGID_20_" gradientUnits="userSpaceOnUse" x1="-364.4142" y1="1000.3884" x2="736.8558" y2="1000.3884" gradientTransform="matrix(1 0 0 -1 408.17 1843.5782)">
								<stop  offset="0" style="stop-color:#000000"/>
								<stop  offset="1" style="stop-color:#FFFFFF"/>
							</linearGradient>
							<path class="st19" d="M594.4,1392.1c-303.1-0.4-548.6-246.5-548.2-549.6c0.4-303.1,246.5-548.6,549.6-548.2
								c303.1,0.4,548.6,246.5,548.2,549.6c-0.3,220.3-132.3,419.2-335.3,504.9C740.9,1377.5,668,1392.2,594.4,1392.1z M594.4,305.8
								C299,305.8,58.8,546.1,58.8,841.5s240.3,535.6,535.6,535.6S1130,1136.8,1130,841.5S889.7,305.8,594.4,305.8z"/>
							
								<linearGradient id="SVGID_21_" gradientUnits="userSpaceOnUse" x1="-394.6042" y1="1000.3584" x2="767.0458" y2="1000.3584" gradientTransform="matrix(1 0 0 -1 408.17 1843.5782)">
								<stop  offset="0" style="stop-color:#000000"/>
								<stop  offset="1" style="stop-color:#FFFFFF"/>
							</linearGradient>
							<path class="st20" d="M594.4,1422.3c-319.8-0.4-578.7-260-578.3-579.8c0.4-319.8,260-578.7,579.8-578.3
								s578.7,260,578.3,579.8c-0.3,232.5-139.6,442.2-353.7,532.7C749,1406.9,672.1,1422.4,594.4,1422.3z M594.4,275.6
								c-312,0-565.8,253.8-565.8,565.8s253.8,565.8,565.8,565.8s565.8-253.8,565.8-565.8S906.4,275.6,594.4,275.6L594.4,275.6z"/>
							
								<linearGradient id="SVGID_22_" gradientUnits="userSpaceOnUse" x1="-424.7842" y1="1000.2182" x2="797.2258" y2="1000.2182" gradientTransform="matrix(1 0 0 -1 408.17 1843.5782)">
								<stop  offset="0" style="stop-color:#000000"/>
								<stop  offset="1" style="stop-color:#FFFFFF"/>
							</linearGradient>
							<path class="st21" d="M594.4,1452.5C258,1452-14.3,1178.9-13.9,842.5S259.6,233.8,596,234.3
								c336.4,0.5,608.7,273.5,608.3,609.9c-0.3,244.5-146.9,465.1-372.1,560.3C757,1436.3,676.1,1452.6,594.4,1452.5z M594.4,245.5
								c-328.6,0-596,267.4-596,596s267.4,596,596,596s596-267.4,596-596S923,245.4,594.4,245.5L594.4,245.5z"/>
							
								<linearGradient id="SVGID_23_" gradientUnits="userSpaceOnUse" x1="-454.9742" y1="1000.1884" x2="827.4158" y2="1000.1884" gradientTransform="matrix(1 0 0 -1 408.17 1843.5782)">
								<stop  offset="0" style="stop-color:#000000"/>
								<stop  offset="1" style="stop-color:#FFFFFF"/>
							</linearGradient>
							<path class="st22" d="M594.4,1482.7c-353.1-0.4-638.9-287-638.5-640.1c0.4-353.1,287-638.9,640.1-638.5
								c353.1,0.4,638.9,287,638.5,640.1c-0.3,256.6-154.1,488.2-390.5,588.1C765,1465.7,680.1,1482.8,594.4,1482.7z M594.4,215.3
								c-345.3,0-626.2,280.9-626.2,626.2s280.9,626.2,626.2,626.2s626.2-280.9,626.2-626.2S939.7,215.3,594.4,215.3L594.4,215.3z"
								/>
							
								<linearGradient id="SVGID_24_" gradientUnits="userSpaceOnUse" x1="-485.1642" y1="1000.0482" x2="857.6058" y2="1000.0482" gradientTransform="matrix(1 0 0 -1 408.17 1843.5782)">
								<stop  offset="0" style="stop-color:#000000"/>
								<stop  offset="1" style="stop-color:#FFFFFF"/>
							</linearGradient>
							<path class="st23" d="M594.4,1512.8C224.7,1512.4-74.5,1212.3-74,842.7c0.5-369.6,300.5-668.9,670.2-668.4
								s668.9,300.5,668.4,670.2c-0.3,268.7-161.3,511.1-408.8,615.7C773.1,1495.1,684.2,1513,594.4,1512.8z M594.4,185.1
								C232.5,185.1-62,479.6-62,841.5s294.5,656.4,656.4,656.4s656.4-294.4,656.4-656.4S956.3,185.1,594.4,185.1L594.4,185.1z"/>
							
								<linearGradient id="SVGID_25_" gradientUnits="userSpaceOnUse" x1="-515.093" y1="1001.8263" x2="888.057" y2="1001.8263" gradientTransform="matrix(1 0 0 -1 408.17 1843.5782)">
								<stop  offset="0" style="stop-color:#000000"/>
								<stop  offset="1" style="stop-color:#FFFFFF"/>
							</linearGradient>
							<path class="st24" d="M594.4,1543c-387.6-0.2-701.6-314.6-701.3-702.2c0.2-281.7,168.8-536,428.2-645.8
								c357.5-149.6,768.6,19,918.2,376.5c148.8,355.8-17.3,765-372.1,916.3C781.1,1524.5,688.2,1543.2,594.4,1543z M594.4,154.9
								c-378.6,0-686.6,308-686.6,686.6s308,686.6,686.6,686.6S1281,1220,1281,841.5S973,154.9,594.4,154.9L594.4,154.9z"/>
							
								<linearGradient id="SVGID_26_" gradientUnits="userSpaceOnUse" x1="-545.2447" y1="1001.7968" x2="918.2653" y2="1001.7968" gradientTransform="matrix(1 0 0 -1 408.17 1843.5782)">
								<stop  offset="0" style="stop-color:#000000"/>
								<stop  offset="1" style="stop-color:#FFFFFF"/>
							</linearGradient>
							<path class="st25" d="M594.4,1573.2C190.2,1573-137.3,1245-137.1,840.8c0.2-293.8,176.1-559,446.6-673.6
								c372.9-156,801.7,19.9,957.7,392.8c155.2,371.1-18.1,797.8-388,955.7C789.1,1553.9,692.2,1573.4,594.4,1573.2z M594.4,124.7
								c-395.2,0-716.8,321.5-716.8,716.8s321.5,716.8,716.8,716.8s716.7-321.5,716.7-716.8S989.6,124.7,594.4,124.7z"/>
							
								<linearGradient id="SVGID_27_" gradientUnits="userSpaceOnUse" x1="-575.3963" y1="1002.2057" x2="948.6833" y2="1002.2057" gradientTransform="matrix(1 0 0 -1 408.17 1843.5782)">
								<stop  offset="0" style="stop-color:#000000"/>
								<stop  offset="1" style="stop-color:#FFFFFF"/>
							</linearGradient>
							<path class="st26" d="M594.4,1603.4c-420.9-0.3-761.9-341.8-761.6-762.7c0.2-305.9,183.3-582.1,465-701.3
								c387.7-163.4,834.6,18,998.6,405.5c163.9,387.4-17.3,834.4-404.7,998.3C797.6,1583,696.5,1603.5,594.4,1603.4z M594.4,94.5
								c-411.9,0-747,335.1-747,747s335.1,746.9,747,746.9s746.9-335.1,746.9-746.9S1006.3,94.5,594.4,94.5L594.4,94.5z"/>
							
								<linearGradient id="SVGID_28_" gradientUnits="userSpaceOnUse" x1="-605.5874" y1="1002.2363" x2="978.8942" y2="1002.2363" gradientTransform="matrix(1 0 0 -1 408.17 1843.5782)">
								<stop  offset="0" style="stop-color:#000000"/>
								<stop  offset="1" style="stop-color:#FFFFFF"/>
							</linearGradient>
							<path class="st27" d="M594.4,1633.6c-437.6-0.3-792.1-355.3-791.8-792.9c0.2-318.1,190.6-605.2,483.5-729.1
								c403.1-169.9,867.7,18.7,1038.2,421.6c170.4,402.8-18,867.5-420.8,1037.9C805.7,1612.4,700.6,1633.6,594.4,1633.6z
								 M594.4,64.3c-428.5,0-777.1,348.6-777.1,777.1s348.6,777.1,777.1,777.1s777.1-348.6,777.1-777.1S1022.9,64.3,594.4,64.3
								L594.4,64.3z"/>
							
								<linearGradient id="SVGID_29_" gradientUnits="userSpaceOnUse" x1="-635.7393" y1="1002.2195" x2="1009.1409" y2="1002.2195" gradientTransform="matrix(1 0 0 -1 408.17 1843.5782)">
								<stop  offset="0" style="stop-color:#000000"/>
								<stop  offset="1" style="stop-color:#FFFFFF"/>
							</linearGradient>
							<path class="st28" d="M594.4,1663.8c-454.3-0.3-822.3-368.8-822-823.1c0.2-330.2,197.8-628.2,501.9-756.9
								C692.8-92.6,1175,103.2,1352.1,521.4c176.9,418.1-18.6,900.5-436.7,1077.4C813.8,1641.8,704.7,1663.9,594.4,1663.8z
								 M594.4,34.1c-445.2,0-807.3,362.2-807.3,807.3s362.2,807.3,807.3,807.3s807.3-362.2,807.3-807.3S1039.5,34.1,594.4,34.1
								L594.4,34.1z"/>
							
								<linearGradient id="SVGID_30_" gradientUnits="userSpaceOnUse" x1="-666.2842" y1="1002.1191" x2="1038.7124" y2="1002.1191" gradientTransform="matrix(1 0 0 -1 408.17 1843.5782)">
								<stop  offset="0" style="stop-color:#000000"/>
								<stop  offset="1" style="stop-color:#FFFFFF"/>
							</linearGradient>
							<path class="st29" d="M594.4,1694c-115.1,0-226.7-22.5-331.8-67c-204.4-86.6-367-249.3-453.7-453.7
								c-44.5-105.1-67-216.7-67-331.8C-258,498.8-52.9,189.5,262.6,55.9c105.1-44.5,216.8-67,331.8-67s226.7,22.5,331.8,67
								C1360,239.6,1562.8,740.2,1379.2,1174c-86.4,204.1-248.9,366.5-452.9,452.9C821.1,1671.4,709.5,1694,594.4,1694z M594.4,4
								C132.6,4-243.1,379.7-243.1,841.5S132.6,1679,594.4,1679s837.5-375.7,837.5-837.5S1056.2,3.9,594.4,4L594.4,4z"/>
							
								<linearGradient id="SVGID_31_" gradientUnits="userSpaceOnUse" x1="-696.4242" y1="1002.1241" x2="1068.9158" y2="1002.1241" gradientTransform="matrix(1 0 0 -1 408.17 1843.5782)">
								<stop  offset="0" style="stop-color:#000000"/>
								<stop  offset="1" style="stop-color:#FFFFFF"/>
							</linearGradient>
							<path class="st30" d="M594.4,1724.1c-119.2,0-234.8-23.3-343.6-69.4c-211.6-89.7-380-258.2-469.7-469.7
								c-46-108.8-69.4-224.4-69.4-343.6s23.3-234.8,69.4-343.6c89.7-211.6,258.1-380,469.7-469.7c108.8-46,224.4-69.4,343.6-69.4
								S829.1-17.9,938,28.1c211.6,89.7,380,258.1,469.7,469.7c46,108.8,69.4,224.4,69.4,343.6s-23.3,234.8-69.4,343.6
								c-89.7,211.6-258.1,380-469.7,469.7C829.1,1700.8,713.6,1724.1,594.4,1724.1z M594.4-26.2c-478.5,0-867.7,389.2-867.7,867.7
								s389.2,867.7,867.7,867.7s867.7-389.2,867.7-867.7S1072.8-26.2,594.4-26.2L594.4-26.2z"/>
							
								<linearGradient id="SVGID_32_" gradientUnits="userSpaceOnUse" x1="-726.6642" y1="1002.1241" x2="1099.1057" y2="1002.1241" gradientTransform="matrix(1 0 0 -1 408.17 1843.5782)">
								<stop  offset="0" style="stop-color:#000000"/>
								<stop  offset="1" style="stop-color:#FFFFFF"/>
							</linearGradient>
							<path class="st31" d="M594.4,1754.3c-123.2,0-242.8-24.1-355.3-71.7c-218.8-92.8-393-267-485.8-485.8
								c-47.6-112.6-71.7-232.1-71.7-355.3s24.1-242.8,71.7-355.3c92.8-218.8,267-393,485.8-485.8c112.6-47.6,232.1-71.8,355.3-71.8
								S837.2-47.3,949.7,0.3c218.8,92.8,393,267,485.8,485.8c47.6,112.6,71.7,232.1,71.7,355.3s-24.1,242.8-71.7,355.3
								c-92.8,218.8-267,393-485.8,485.8C837.2,1730.2,717.6,1754.3,594.4,1754.3z M594.4-56.4c-495.1,0-897.9,402.8-897.9,897.9
								s402.8,897.9,897.9,897.9s897.9-402.8,897.9-897.9S1089.5-56.4,594.4-56.4z"/>
							
								<linearGradient id="SVGID_33_" gradientUnits="userSpaceOnUse" x1="-756.8442" y1="1002.0991" x2="1129.2958" y2="1002.0991" gradientTransform="matrix(1 0 0 -1 408.17 1843.5782)">
								<stop  offset="0" style="stop-color:#000000"/>
								<stop  offset="1" style="stop-color:#FFFFFF"/>
							</linearGradient>
							<path class="st32" d="M594.4,1784.6c-127.3,0-250.8-25-367.1-74.2c-226.1-95.8-406-275.8-501.9-501.8
								c-49.2-116.3-74.1-239.8-74.1-367.1s24.9-250.8,74.1-367.1c95.8-226.1,275.8-406,501.9-501.9
								c116.3-49.2,239.8-74.1,367.1-74.1s250.8,24.9,367.1,74.1c226.1,95.8,406,275.8,501.9,501.9
								c49.2,116.3,74.1,239.8,74.1,367.1s-24.9,250.8-74.1,367.1c-95.8,226.1-275.8,406-501.9,501.9
								C845.2,1759.6,721.7,1784.6,594.4,1784.6z M594.4-86.6c-511.7,0-928.1,416.3-928.1,928.1s416.3,928.1,928.1,928.1
								s928.1-416.3,928.1-928.1S1106.1-86.6,594.4-86.6L594.4-86.6z"/>
							
								<linearGradient id="SVGID_34_" gradientUnits="userSpaceOnUse" x1="-787.0342" y1="1002.1191" x2="1159.4758" y2="1002.1191" gradientTransform="matrix(1 0 0 -1 408.17 1843.5782)">
								<stop  offset="0" style="stop-color:#000000"/>
								<stop  offset="1" style="stop-color:#FFFFFF"/>
							</linearGradient>
							<path class="st33" d="M594.4,1814.7c-131.4,0-258.8-25.7-378.8-76.5c-233.3-98.9-419-284.6-517.9-517.9
								c-50.8-120-76.5-247.4-76.5-378.8s25.7-258.9,76.5-378.8c98.9-233.3,284.6-419,517.9-517.9c120-50.8,247.5-76.5,378.8-76.5
								s258.8,25.7,378.8,76.5c233.3,98.9,419,284.6,517.9,517.9c50.8,120,76.5,247.5,76.5,378.8s-25.7,258.8-76.5,378.8
								c-98.9,233.3-284.6,419-517.9,517.9C853.2,1789,725.8,1814.7,594.4,1814.7z M594.4-116.8c-528.4,0-958.3,429.9-958.3,958.3
								S66,1799.7,594.4,1799.7s958.3-429.9,958.3-958.3S1122.8-116.8,594.4-116.8z"/>
							
								<linearGradient id="SVGID_35_" gradientUnits="userSpaceOnUse" x1="-817.2242" y1="1002.1241" x2="1189.6658" y2="1002.1241" gradientTransform="matrix(1 0 0 -1 408.17 1843.5782)">
								<stop  offset="0" style="stop-color:#000000"/>
								<stop  offset="1" style="stop-color:#FFFFFF"/>
							</linearGradient>
							<path class="st34" d="M594.4,1844.9c-135.5,0-266.9-26.5-390.6-78.8c-240.5-102-432-293.5-534-534
								c-52.3-123.7-78.9-255.1-78.9-390.6s26.5-266.9,78.9-390.6c102-240.5,293.5-432,534-534C327.5-135.4,458.9-162,594.4-162
								S861.3-135.4,985-83.1c240.5,102,432,293.5,534,534c52.3,123.7,78.9,255.1,78.9,390.6s-26.5,266.9-78.9,390.6
								c-102,240.5-293.5,432-534,534C861.3,1818.4,729.9,1844.9,594.4,1844.9z M594.4-147c-545,0-988.4,443.4-988.4,988.5
								s443.4,988.4,988.4,988.4s988.4-443.4,988.4-988.4S1139.4-147,594.4-147L594.4-147z"/>
						</g>
					</g>
				</g>
			</g>
		</g>
	</g>
</g>
</svg>
